<svg xmlns="http://www.w3.org/2000/svg" viewBox="0 0 249.32 153.22"><defs><style>.cls-1{font-size:72.85px;font-family:Lato-Semibold, Lato;font-weight:600;}.cls-2{letter-spacing:-0.12em;}.cls-3{fill:#9b1e25;}.cls-4{fill:#d61d29;}</style></defs><title>Zasób 10</title><g id="Warstwa_2" data-name="Warstwa 2"><g id="Warstwa_1-2" data-name="Warstwa 1"><text class="cls-1" transform="translate(0 133)"><tspan class="cls-2">T</tspan><tspan x="34.57" y="0">onosin</tspan></text><path class="cls-3" d="M109,31.69c-.38-.18.22-2.25.43-3a20.25,20.25,0,0,1,.89-2.45c.39-.94.73-1.63,1-2.17.16-.33.65-1.28,1.36-2.49.55-.92,1-1.57,1.61-2.54s1-1.5,1.31-1.93.75-1.09,1.29-1.84,1.12-1.52,1.59-2.12c.8-1,1.2-1.57,1.67-2.13.33-.39,1-1.21,2-2.21a27.42,27.42,0,0,1,2-1.9,25,25,0,0,1,2-1.57,35.49,35.49,0,0,1,3.4-2.08,26.5,26.5,0,0,1,4.05-1.87,25.16,25.16,0,0,1,3.77-1,28,28,0,0,1,2.93-.35c.68-.06,1.75-.14,3.11-.13a29,29,0,0,1,5.4.55,28,28,0,0,1,3.07.81,23.66,23.66,0,0,1,2.55,1,22.77,22.77,0,0,1,2.7,1.48,18.64,18.64,0,0,1,2,1.41,18,18,0,0,1,1.56,1.44c.25.26,1,1.06,2,2.26a20.15,20.15,0,0,1,1.74,2.29,15.91,15.91,0,0,1,1.37,2.66,19,19,0,0,1,.85,3.18c.2,1,.4,1.88.55,3.07a31.54,31.54,0,0,1,.19,4.36,50.27,50.27,0,0,1-.21,5.07,40.94,40.94,0,0,1-.77,4.78,40.56,40.56,0,0,1-3.64,9.53,60.14,60.14,0,0,1-3.15,5.51,50.38,50.38,0,0,1-4.32,5.92,52.25,52.25,0,0,1-4.7,4.77c-1.93,1.75-3.52,3-4.51,3.73s-2.14,1.63-3.88,2.78c-.93.6-2.32,1.51-4.22,2.51a43.24,43.24,0,0,1-6.59,2.83c-2.79.93-4.19,1.39-4.43,1-.64-.91,4.82-4.87,12.25-13.27A74.34,74.34,0,0,0,147.45,49c1.38-2.28,2.4-4.35,3.36-6.29a33.63,33.63,0,0,0,1.92-4.5,31.32,31.32,0,0,0,.82-3.14c.09-.41.35-1.63.59-3.27a45.62,45.62,0,0,0,.45-4.81c0-.78,0-1.38,0-2.22a16.47,16.47,0,0,0-.67-4.14c-.19-.6-.38-1.06-.59-1.59a17,17,0,0,0-1.11-2.33,8.49,8.49,0,0,0-1.48-2,8.08,8.08,0,0,0-2.18-1.4,9.81,9.81,0,0,0-2.7-.67,17.22,17.22,0,0,0-3.07-.18,19.31,19.31,0,0,0-3.29.37A30,30,0,0,0,135.21,14c-1.14.37-2,.72-3.77,1.41s-2.54,1-2.89,1.22c-.85.41-1.41.74-2.48,1.37-1.54.9-2.68,1.64-3.55,2.22-1.14.75-1.81,1.19-2.73,1.88s-1.42,1.11-2.09,1.66c-.89.72-1.54,1.29-1.8,1.51s-.74.64-1.51,1.34-1,.89-1.46,1.36-.4.41-1.27,1.29l-1,1C109.27,31.6,109.14,31.74,109,31.69Z"/><path class="cls-4" d="M120.93,13.1c.52-.68-1.43-3.66-4.26-5.52-1.93-1.28-3.71-1.67-6.46-2.26a32.81,32.81,0,0,0-6.36-.7,17.19,17.19,0,0,0-4.34.19A16.08,16.08,0,0,0,95,6.59a20.73,20.73,0,0,0-4,2.69,16,16,0,0,0-3,3.4,16.38,16.38,0,0,0-2.09,4.76,22.6,22.6,0,0,0-.79,4.93,33.64,33.64,0,0,0,0,4.77,32.2,32.2,0,0,0,.7,5.66,27.41,27.41,0,0,0,1.52,4.77c.42,1,1,2.06,2.14,4.17,1,1.93,1.78,3.15,2.18,3.81.64,1,1.07,1.74,1.74,2.67.53.72,1,1.24,1.78,2.23s1.26,1.53,1.89,2.19,1,1,1.71,1.66c.58.54,1,.94,1.63,1.46s.67.53,1.57,1.27,1.06.88,1.58,1.28.4.31,1.33,1l1.48,1.14,1.48,1.11,1.53,1.13L111.2,64c1.26,1,1.18.92,1.7,1.28.15.11.91.63,2,1.23a15.51,15.51,0,0,0,1.44.74c1.31.6,1.49.49,1.54.45.27-.22.05-.88-.2-1.67a9.71,9.71,0,0,0-.88-2,17.71,17.71,0,0,0-1.12-1.73c-.24-.34-.67-1-1.27-1.67-.38-.47-.68-.8-1.8-2-1.5-1.59-1.44-1.5-2.11-2.22-1.13-1.22-1.06-1.21-2.15-2.37-.68-.73-1.06-1.08-1.77-1.88-.46-.53-.86-1-1-1.16-.41-.49-.71-.87-.94-1.17-.57-.73-.59-.79-1.16-1.53s-.56-.7-1.25-1.58-.85-1.1-1.1-1.45-.26-.4-1.19-1.84c-.69-1.08-.73-1.13-.89-1.41s-.18-.34-.81-1.62-.74-1.52-.83-1.73-.32-.73-.63-1.53c-.16-.42-.1-.3-.59-1.67-.29-.83-.4-1.13-.56-1.66-.07-.22-.15-.5-.25-.88s-.2-.78-.32-1.5-.16-1.12-.22-1.83c-.15-1.58-.19-2.79-.2-3.23,0-1,0-1.73,0-2,0-.93,0-1.57.13-2.42a9.84,9.84,0,0,1,.46-2.39,8.35,8.35,0,0,1,1.1-2.08,10.62,10.62,0,0,1,1.14-1.3c.43-.43.77-.72,1.19-1.07a15.16,15.16,0,0,1,1.68-1.32,11.72,11.72,0,0,1,2.05-1,12.48,12.48,0,0,1,2.59-.66,19.56,19.56,0,0,1,2.37-.28c.35,0,1.32-.07,2.61,0,.88,0,1.5.11,2.54.22s1.75.2,2.69.37c1.18.22,2.44.52,2.44.52a8.22,8.22,0,0,0,1.88.32C120.34,13.3,120.77,13.31,120.93,13.1Z"/></g></g></svg>